<?xml version="1.0" standalone="no"?>
<!DOCTYPE svg PUBLIC "-//W3C//DTD SVG 20010904//EN"
 "http://www.w3.org/TR/2001/REC-SVG-20010904/DTD/svg10.dtd">
<svg version="1.0" xmlns="http://www.w3.org/2000/svg"
 width="227.000000pt" height="227.000000pt" viewBox="0 0 227.000000 227.000000"
 preserveAspectRatio="xMidYMid meet">

<g transform="translate(0.000000,227.000000) scale(0.100000,-0.100000)"
fill="#000000" stroke="none">
<path d="M0 1145 l0 -1125 1125 0 1125 0 0 1125 0 1125 -1125 0 -1125 0 0
-1125z m1319 45 c33 -85 59 -140 67 -140 8 0 14 -4 14 -10 0 -6 -28 -10 -65
-10 -66 0 -80 5 -46 18 18 7 18 9 4 45 -15 36 -17 37 -63 37 -46 0 -48 -1 -63
-37 -14 -36 -14 -38 7 -48 18 -8 15 -10 -23 -13 -49 -4 -62 3 -38 21 9 6 33
55 53 107 46 121 71 170 87 170 6 0 36 -63 66 -140z m-575 120 c20 -7 26 -16
26 -40 0 -37 -6 -37 -36 -5 -34 37 -104 36 -134 -2 -19 -24 -21 -38 -18 -95 5
-85 24 -110 82 -106 37 3 41 6 44 32 3 22 -3 34 -20 48 -23 17 -22 18 45 18
38 0 67 -4 67 -10 0 -5 -7 -10 -15 -10 -11 0 -15 -12 -15 -45 0 -42 -1 -44
-37 -54 -128 -36 -230 30 -220 142 5 57 30 95 78 119 37 20 113 24 153 8z
m293 -10 c48 -29 67 -65 67 -125 0 -85 -57 -145 -139 -145 -136 0 -196 163
-93 256 12 12 30 24 38 27 34 12 96 6 127 -13z m612 -22 l0 -43 -16 33 c-14
26 -22 32 -50 32 l-33 0 0 -124 c0 -119 1 -124 23 -131 19 -7 17 -9 -15 -12
-21 -2 -55 -2 -75 0 -33 3 -35 5 -15 12 21 7 22 12 22 131 l0 124 -34 0 c-29
0 -36 -5 -45 -30 -14 -41 -21 -38 -21 10 l0 40 130 0 130 0 -1 -42z m-151
-435 c-230 -2 -606 -2 -835 0 -230 1 -42 2 417 2 459 0 647 -1 418 -2z"/>
<path d="M1212 1211 c-16 -52 -16 -51 18 -51 17 0 30 5 30 10 0 13 -28 80 -33
80 -2 0 -9 -17 -15 -39z"/>
<path d="M915 1275 c-22 -21 -25 -33 -25 -95 0 -66 2 -74 29 -101 36 -35 52
-36 87 -6 52 45 42 186 -15 217 -30 16 -50 12 -76 -15z"/>
</g>
</svg>
